<svg viewBox="0 0 531.19 177.5" xmlns="http://www.w3.org/2000/svg">
<g>
<g>
<g>
<path fill="#ffffff" d="M294.89,121.67c-4.86,3.19-10.98,4.78-18.35,4.78-6.48,0-12.28-1.77-17.41-5.3-5.13-3.53-9.13-8.44-12.01-14.73-2.88-6.28-4.32-13.35-4.32-21.21,0-6.98,1.15-13.18,3.44-18.59,2.29-5.41,5.6-9.6,9.92-12.57,4.32-2.97,9.4-4.45,15.25-4.45,8.1,0,14.78,2.34,20.04,7,5.26,4.67,9.24,11.11,11.94,19.31l3.78-.92c-1.08-6.89-2.02-16.84-2.84-29.85h-2.43l-3.1,3.27c-4.5-1.22-8.95-2.2-13.36-2.95-4.41-.74-9.04-1.11-13.9-1.11-9.72,0-18.35,2.16-25.91,6.48s-13.41,10.08-17.54,17.28c-4.14,7.2-6.21,14.9-6.21,23.1s1.85,15.6,5.54,21.93c3.69,6.33,9.06,11.24,16.13,14.73,7.06,3.49,15.59,5.24,25.57,5.24,10.88,0,19.64-2.14,26.25-6.41,6.61-4.27,11.58-9.29,14.91-15.05l-3.24-2.49c-3.24,5.15-7.29,9.32-12.15,12.5Z"/>
<path fill="#ffffff" d="M380.58,92.42c-2.16-3.14-4.93-5.61-8.3-7.4-3.37-1.79-7.49-3.38-12.35-4.78-1.53-.44-3.1-.87-4.72-1.31-4.86-1.31-8.7-2.51-11.54-3.6-2.83-1.09-5.19-2.6-7.08-4.52-1.89-1.92-2.83-4.41-2.83-7.46,0-3.93,1.44-7.15,4.32-9.69,2.88-2.53,6.75-3.8,11.61-3.8,7.02,0,12.55,2.18,16.6,6.55,4.05,4.36,7.11,10.21,9.18,17.54l4.05-.92c-.99-7.94-1.71-17.41-2.16-28.41h-2.43l-3.24,4.19c-7.29-2.97-14.75-4.45-22.4-4.45-5.85,0-11.11,1.14-15.79,3.4-4.68,2.27-8.34,5.41-11,9.42-2.65,4.02-3.98,8.55-3.98,13.61,0,4.71.9,8.64,2.7,11.78,1.8,3.14,4.21,5.67,7.22,7.59,3.01,1.92,6.68,3.58,11,4.97,1.89.61,4.72,1.44,8.5,2.49,4.77,1.31,8.5,2.49,11.2,3.53s4.95,2.51,6.75,4.39c1.8,1.88,2.7,4.34,2.7,7.4,0,4.36-1.55,7.9-4.65,10.6-3.11,2.71-7.58,4.06-13.43,4.06-5.49,0-10.28-1.29-14.37-3.86-4.09-2.57-7.45-6.06-10.05-10.47-2.61-4.41-4.5-9.45-5.67-15.12l-3.91.79c.54,4.71.97,10.04,1.28,15.97.31,5.94.52,11.39.61,16.36h3.51c.09-.87.47-1.74,1.15-2.62.67-.87,1.55-1.31,2.63-1.31.72,0,1.62.18,2.7.52,1.08.35,2.2.74,3.38,1.18,3.15,1.22,6.14,2.21,8.97,2.95,2.83.74,6.19,1.11,10.05,1.11,6.57,0,12.35-1.18,17.34-3.53,4.99-2.36,8.86-5.71,11.61-10.08,2.74-4.36,4.12-9.42,4.12-15.18,0-4.8-1.08-8.77-3.24-11.91Z"/>
</g>
</g>
</g>
</svg>
